<svg width="31" height="27" viewBox="0 0 31 27" fill="none" xmlns="http://www.w3.org/2000/svg">
<path d="M30.0967 0.381362C29.9601 0.246815 29.7878 0.154354 29.6002 0.114992C29.4125 0.0756294 29.2176 0.0910253 29.0384 0.159346C24.5824 1.85576 21.6352 3.92901 19.7701 6.73096L17.6908 1.26936L15.8217 1.98094L16.8891 4.78463L13.1508 6.2078L12.0835 3.4041L10.2143 4.11569L12.2936 9.57729C9.03729 8.72508 5.45749 9.13668 1.00148 10.8331C0.822481 10.9013 0.666854 11.0196 0.553106 11.1737C0.439357 11.3278 0.372276 11.5114 0.359841 11.7026C0.347406 11.8937 0.390139 12.0844 0.482959 12.252C0.575779 12.4196 0.714779 12.557 0.883426 12.6478C3.17332 13.8819 4.90004 15.4523 6.42852 19.4672C6.52289 19.715 6.71185 19.9152 6.95383 20.0238C7.19582 20.1323 7.47102 20.1403 7.71888 20.0459C10.3058 19.0611 13.7924 19.1355 15.1052 22.584C15.1963 22.8206 15.3735 23.0141 15.6013 23.1254C15.829 23.2368 16.0905 23.2579 16.3332 23.1844C16.7326 23.0644 20.2719 22.1022 21.557 25.4779C21.6514 25.7257 21.8403 25.926 22.0823 26.0345C22.3243 26.1431 22.5995 26.151 22.8474 26.0567C23.0952 25.9623 23.2955 25.7733 23.404 25.5313C23.5125 25.2894 23.5205 25.0142 23.4261 24.7663C22.1407 21.3897 25.4237 19.7546 25.7985 19.5809C26.0302 19.4758 26.2132 19.2863 26.3101 19.051C26.407 18.8157 26.4105 18.5523 26.32 18.3145C25.0071 14.866 27.5616 12.4918 30.1484 11.5069C30.3963 11.4126 30.5965 11.2236 30.7051 10.9816C30.8136 10.7396 30.8216 10.4644 30.7272 10.2166C29.1987 6.20169 29.444 3.88056 30.3335 1.43614C30.399 1.25608 30.4115 1.06098 30.3693 0.874045C30.3272 0.687112 30.2322 0.516224 30.0957 0.381717L30.0967 0.381362ZM28.5329 10.029C25.479 11.5212 23.2018 14.4437 24.1818 18.1901C22.7797 19.0381 21.7462 20.3806 21.2851 21.953C19.8951 21.0853 18.2304 20.77 16.6193 21.0692C14.8598 17.6195 11.216 16.9523 7.94256 17.8678C7.08265 15.5609 5.59478 13.5403 3.64702 12.0344C7.60577 10.8194 10.7279 10.8667 13.586 12.1487C13.7665 12.2296 13.9669 12.2552 14.1618 12.2222C14.3568 12.1893 14.5376 12.0992 14.6815 11.9635C14.8253 11.8278 14.9256 11.6525 14.9698 11.4597C15.014 11.267 15.0001 11.0655 14.9298 10.8806L13.8624 8.07693L17.6007 6.65377L18.668 9.45746C18.7384 9.64226 18.8621 9.80203 19.0232 9.91659C19.1844 10.0311 19.376 10.0953 19.5736 10.1011C19.7713 10.1068 19.9662 10.0537 20.1338 9.9487C20.3013 9.84365 20.4339 9.69128 20.5149 9.51086C21.7969 6.65272 24.0971 4.54115 27.8616 2.81588C27.4084 5.23582 27.6409 7.73428 28.5329 10.029Z" fill="#333333"/>
</svg>
