<svg width="129" height="117" viewBox="0 0 129 117" fill="none" xmlns="http://www.w3.org/2000/svg">
<circle cx="6.5" cy="6.5" r="6.5" fill="#C4C4C4" fill-opacity="0.3"/>
<circle cx="35.5" cy="6.5" r="6.5" fill="#C4C4C4" fill-opacity="0.3"/>
<circle cx="64.5" cy="6.5" r="6.5" fill="#C4C4C4" fill-opacity="0.3"/>
<circle cx="93.5" cy="6.5" r="6.5" fill="#C4C4C4" fill-opacity="0.3"/>
<circle cx="122.5" cy="6.5" r="6.5" fill="#C4C4C4" fill-opacity="0.3"/>
<circle cx="6.5" cy="32.5" r="6.5" fill="#C4C4C4" fill-opacity="0.3"/>
<circle cx="6.5" cy="58.5" r="6.5" fill="#C4C4C4" fill-opacity="0.3"/>
<circle cx="6.5" cy="84.5" r="6.5" fill="#C4C4C4" fill-opacity="0.3"/>
<circle cx="6.5" cy="110.5" r="6.5" fill="#C4C4C4" fill-opacity="0.3"/>
<circle cx="35.5" cy="32.5" r="6.5" fill="#C4C4C4" fill-opacity="0.3"/>
<circle cx="35.5" cy="58.5" r="6.5" fill="#C4C4C4" fill-opacity="0.3"/>
<circle cx="35.5" cy="84.5" r="6.5" fill="#C4C4C4" fill-opacity="0.3"/>
<circle cx="35.5" cy="110.5" r="6.5" fill="#C4C4C4" fill-opacity="0.3"/>
<circle cx="64.5" cy="32.5" r="6.5" fill="#C4C4C4" fill-opacity="0.3"/>
<circle cx="64.5" cy="58.5" r="6.5" fill="#C4C4C4" fill-opacity="0.3"/>
<circle cx="64.5" cy="84.5" r="6.5" fill="#C4C4C4" fill-opacity="0.3"/>
<circle cx="64.5" cy="110.5" r="6.5" fill="#C4C4C4" fill-opacity="0.3"/>
<circle cx="93.5" cy="32.5" r="6.5" fill="#C4C4C4" fill-opacity="0.3"/>
<circle cx="93.5" cy="58.5" r="6.5" fill="#C4C4C4" fill-opacity="0.3"/>
<circle cx="93.5" cy="84.5" r="6.5" fill="#C4C4C4" fill-opacity="0.3"/>
<circle cx="93.5" cy="110.5" r="6.5" fill="#C4C4C4" fill-opacity="0.3"/>
<circle cx="122.5" cy="32.5" r="6.5" fill="#C4C4C4" fill-opacity="0.3"/>
<circle cx="122.5" cy="58.5" r="6.5" fill="#C4C4C4" fill-opacity="0.3"/>
<circle cx="122.5" cy="84.5" r="6.5" fill="#C4C4C4" fill-opacity="0.3"/>
<circle cx="122.5" cy="110.5" r="6.5" fill="#C4C4C4" fill-opacity="0.3"/>
</svg>
