<svg width="126" height="58" viewBox="0 0 126 58" fill="none" xmlns="http://www.w3.org/2000/svg">
<path d="M1.248 14.696V16.472H22.776V14.696H1.248ZM11.664 9.296V11.048H20.184V9.296H11.664ZM10.584 5.84V15.536H12.456V5.84H10.584ZM10.584 15.896V27.92H12.456V15.896H10.584ZM11.928 19.904C14.64 20.672 18.264 21.992 20.112 22.904L21.048 21.296C19.104 20.36 15.456 19.16 12.816 18.464L11.928 19.904ZM26.592 8.768V10.28H45.6V8.768H26.592ZM25.224 15.008V16.52H46.8V15.008H25.224ZM32.664 9.392V15.848H34.344V9.392H32.664ZM37.416 9.392V15.848H39.144V9.392H37.416ZM27.768 11.168C28.608 12.32 29.4 13.88 29.688 14.912L31.248 14.288C30.96 13.232 30.144 11.696 29.256 10.592L27.768 11.168ZM29.544 6.44C30.264 7.232 31.008 8.408 31.296 9.2L32.952 8.456C32.616 7.688 31.896 6.584 31.128 5.816L29.544 6.44ZM42.648 10.472C42.144 11.648 41.184 13.304 40.488 14.36L41.88 14.84C42.624 13.88 43.536 12.392 44.28 11.048L42.648 10.472ZM40.56 5.816C40.152 6.584 39.408 7.736 38.808 8.456L40.392 9.008C40.968 8.336 41.712 7.376 42.336 6.392L40.56 5.816ZM28.776 17.984V27.896H30.576V19.424H41.424V27.824H43.32V17.984H28.776ZM29.76 21.776V23.192H42.288V21.776H29.76ZM29.784 25.616V27.08H42.312V25.616H29.784ZM49.248 14.696V16.472H70.776V14.696H49.248ZM59.664 9.296V11.048H68.184V9.296H59.664ZM58.584 5.84V15.536H60.456V5.84H58.584ZM58.584 15.896V27.92H60.456V15.896H58.584ZM59.928 19.904C62.64 20.672 66.264 21.992 68.112 22.904L69.048 21.296C67.104 20.36 63.456 19.16 60.816 18.464L59.928 19.904ZM78.072 14.216H89.952V18.08H78.072V14.216ZM76.32 12.608V19.688H91.8V12.608H76.32ZM73.656 8.24V9.92H94.416V8.24H73.656ZM83.016 5.84V13.328H84.84V5.84H83.016ZM85.584 18.704V25.16C85.584 27.128 86.184 27.704 88.44 27.704C88.896 27.704 91.752 27.704 92.232 27.704C94.272 27.704 94.8 26.792 95.016 23.168C94.512 23.048 93.72 22.76 93.312 22.424C93.216 25.52 93.072 25.976 92.088 25.976C91.44 25.976 89.112 25.976 88.608 25.976C87.6 25.976 87.408 25.856 87.408 25.136V18.704H85.584ZM80.112 19.328C79.68 22.928 78.528 25.208 73.032 26.336C73.416 26.72 73.92 27.488 74.088 27.968C80.088 26.528 81.528 23.72 82.032 19.328H80.112Z" fill="#333333"/>
<path opacity="0.6" d="M37.774 44.718C37.774 43.494 38.05 42.396 38.602 41.424C39.154 40.44 39.904 39.672 40.852 39.12C41.812 38.568 42.874 38.292 44.038 38.292C45.406 38.292 46.6 38.622 47.62 39.282C48.64 39.942 49.384 40.878 49.852 42.09H47.89C47.542 41.334 47.038 40.752 46.378 40.344C45.73 39.936 44.95 39.732 44.038 39.732C43.162 39.732 42.376 39.936 41.68 40.344C40.984 40.752 40.438 41.334 40.042 42.09C39.646 42.834 39.448 43.71 39.448 44.718C39.448 45.714 39.646 46.59 40.042 47.346C40.438 48.09 40.984 48.666 41.68 49.074C42.376 49.482 43.162 49.686 44.038 49.686C44.95 49.686 45.73 49.488 46.378 49.092C47.038 48.684 47.542 48.102 47.89 47.346H49.852C49.384 48.546 48.64 49.476 47.62 50.136C46.6 50.784 45.406 51.108 44.038 51.108C42.874 51.108 41.812 50.838 40.852 50.298C39.904 49.746 39.154 48.984 38.602 48.012C38.05 47.04 37.774 45.942 37.774 44.718ZM61.0383 41.136V51H59.4003V49.542C59.0883 50.046 58.6503 50.442 58.0863 50.73C57.5343 51.006 56.9223 51.144 56.2503 51.144C55.4823 51.144 54.7923 50.988 54.1803 50.676C53.5683 50.352 53.0823 49.872 52.7223 49.236C52.3743 48.6 52.2003 47.826 52.2003 46.914V41.136H53.8203V46.698C53.8203 47.67 54.0663 48.42 54.5583 48.948C55.0503 49.464 55.7223 49.722 56.5743 49.722C57.4503 49.722 58.1403 49.452 58.6443 48.912C59.1483 48.372 59.4003 47.586 59.4003 46.554V41.136H61.0383ZM65.442 42.954C65.766 42.39 66.246 41.922 66.882 41.55C67.53 41.166 68.28 40.974 69.132 40.974C70.008 40.974 70.8 41.184 71.508 41.604C72.228 42.024 72.792 42.618 73.2 43.386C73.608 44.142 73.812 45.024 73.812 46.032C73.812 47.028 73.608 47.916 73.2 48.696C72.792 49.476 72.228 50.082 71.508 50.514C70.8 50.946 70.008 51.162 69.132 51.162C68.292 51.162 67.548 50.976 66.9 50.604C66.264 50.22 65.778 49.746 65.442 49.182V55.68H63.804V41.136H65.442V42.954ZM72.138 46.032C72.138 45.288 71.988 44.64 71.688 44.088C71.388 43.536 70.98 43.116 70.464 42.828C69.96 42.54 69.402 42.396 68.79 42.396C68.19 42.396 67.632 42.546 67.116 42.846C66.612 43.134 66.204 43.56 65.892 44.124C65.592 44.676 65.442 45.318 65.442 46.05C65.442 46.794 65.592 47.448 65.892 48.012C66.204 48.564 66.612 48.99 67.116 49.29C67.632 49.578 68.19 49.722 68.79 49.722C69.402 49.722 69.96 49.578 70.464 49.29C70.98 48.99 71.388 48.564 71.688 48.012C71.988 47.448 72.138 46.788 72.138 46.032ZM80.1549 44.718C80.1549 43.494 80.4309 42.396 80.9829 41.424C81.5349 40.44 82.2849 39.672 83.2329 39.12C84.1929 38.568 85.2549 38.292 86.4189 38.292C87.7869 38.292 88.9809 38.622 90.0009 39.282C91.0209 39.942 91.7649 40.878 92.2329 42.09H90.2709C89.9229 41.334 89.4189 40.752 88.7589 40.344C88.1109 39.936 87.3309 39.732 86.4189 39.732C85.5429 39.732 84.7569 39.936 84.0609 40.344C83.3649 40.752 82.8189 41.334 82.4229 42.09C82.0269 42.834 81.8289 43.71 81.8289 44.718C81.8289 45.714 82.0269 46.59 82.4229 47.346C82.8189 48.09 83.3649 48.666 84.0609 49.074C84.7569 49.482 85.5429 49.686 86.4189 49.686C87.3309 49.686 88.1109 49.488 88.7589 49.092C89.4189 48.684 89.9229 48.102 90.2709 47.346H92.2329C91.7649 48.546 91.0209 49.476 90.0009 50.136C88.9809 50.784 87.7869 51.108 86.4189 51.108C85.2549 51.108 84.1929 50.838 83.2329 50.298C82.2849 49.746 81.5349 48.984 80.9829 48.012C80.4309 47.04 80.1549 45.942 80.1549 44.718ZM94.0592 46.032C94.0592 45.024 94.2632 44.142 94.6712 43.386C95.0792 42.618 95.6372 42.024 96.3452 41.604C97.0652 41.184 97.8632 40.974 98.7392 40.974C99.6032 40.974 100.353 41.16 100.989 41.532C101.625 41.904 102.099 42.372 102.411 42.936V41.136H104.067V51H102.411V49.164C102.087 49.74 101.601 50.22 100.953 50.604C100.317 50.976 99.5732 51.162 98.7212 51.162C97.8452 51.162 97.0532 50.946 96.3452 50.514C95.6372 50.082 95.0792 49.476 94.6712 48.696C94.2632 47.916 94.0592 47.028 94.0592 46.032ZM102.411 46.05C102.411 45.306 102.261 44.658 101.961 44.106C101.661 43.554 101.253 43.134 100.737 42.846C100.233 42.546 99.6752 42.396 99.0632 42.396C98.4512 42.396 97.8932 42.54 97.3892 42.828C96.8852 43.116 96.4832 43.536 96.1832 44.088C95.8832 44.64 95.7332 45.288 95.7332 46.032C95.7332 46.788 95.8832 47.448 96.1832 48.012C96.4832 48.564 96.8852 48.99 97.3892 49.29C97.8932 49.578 98.4512 49.722 99.0632 49.722C99.6752 49.722 100.233 49.578 100.737 49.29C101.253 48.99 101.661 48.564 101.961 48.012C102.261 47.448 102.411 46.794 102.411 46.05ZM112.343 51L108.473 46.644V51H106.835V37.68H108.473V45.51L112.271 41.136H114.557L109.913 46.05L114.575 51H112.343ZM125.099 45.69C125.099 46.002 125.081 46.332 125.045 46.68H117.161C117.221 47.652 117.551 48.414 118.151 48.966C118.763 49.506 119.501 49.776 120.365 49.776C121.073 49.776 121.661 49.614 122.129 49.29C122.609 48.954 122.945 48.51 123.137 47.958H124.901C124.637 48.906 124.109 49.68 123.317 50.28C122.525 50.868 121.541 51.162 120.365 51.162C119.429 51.162 118.589 50.952 117.845 50.532C117.113 50.112 116.537 49.518 116.117 48.75C115.697 47.97 115.487 47.07 115.487 46.05C115.487 45.03 115.691 44.136 116.099 43.368C116.507 42.6 117.077 42.012 117.809 41.604C118.553 41.184 119.405 40.974 120.365 40.974C121.301 40.974 122.129 41.178 122.849 41.586C123.569 41.994 124.121 42.558 124.505 43.278C124.901 43.986 125.099 44.79 125.099 45.69ZM123.407 45.348C123.407 44.724 123.269 44.19 122.993 43.746C122.717 43.29 122.339 42.948 121.859 42.72C121.391 42.48 120.869 42.36 120.293 42.36C119.465 42.36 118.757 42.624 118.169 43.152C117.593 43.68 117.263 44.412 117.179 45.348H123.407Z" fill="black"/>
<line x1="37" y1="34" x2="110" y2="34" stroke="#333333" stroke-width="2"/>
</svg>
