<svg width="120" height="55" viewBox="0 0 120 55" fill="none" xmlns="http://www.w3.org/2000/svg">
<path d="M1.248 14.696V16.472H22.776V14.696H1.248ZM11.664 9.296V11.048H20.184V9.296H11.664ZM10.584 5.84V15.536H12.456V5.84H10.584ZM10.584 15.896V27.92H12.456V15.896H10.584ZM11.928 19.904C14.64 20.672 18.264 21.992 20.112 22.904L21.048 21.296C19.104 20.36 15.456 19.16 12.816 18.464L11.928 19.904ZM26.592 8.768V10.28H45.6V8.768H26.592ZM25.224 15.008V16.52H46.8V15.008H25.224ZM32.664 9.392V15.848H34.344V9.392H32.664ZM37.416 9.392V15.848H39.144V9.392H37.416ZM27.768 11.168C28.608 12.32 29.4 13.88 29.688 14.912L31.248 14.288C30.96 13.232 30.144 11.696 29.256 10.592L27.768 11.168ZM29.544 6.44C30.264 7.232 31.008 8.408 31.296 9.2L32.952 8.456C32.616 7.688 31.896 6.584 31.128 5.816L29.544 6.44ZM42.648 10.472C42.144 11.648 41.184 13.304 40.488 14.36L41.88 14.84C42.624 13.88 43.536 12.392 44.28 11.048L42.648 10.472ZM40.56 5.816C40.152 6.584 39.408 7.736 38.808 8.456L40.392 9.008C40.968 8.336 41.712 7.376 42.336 6.392L40.56 5.816ZM28.776 17.984V27.896H30.576V19.424H41.424V27.824H43.32V17.984H28.776ZM29.76 21.776V23.192H42.288V21.776H29.76ZM29.784 25.616V27.08H42.312V25.616H29.784ZM49.248 14.696V16.472H70.776V14.696H49.248ZM59.664 9.296V11.048H68.184V9.296H59.664ZM58.584 5.84V15.536H60.456V5.84H58.584ZM58.584 15.896V27.92H60.456V15.896H58.584ZM59.928 19.904C62.64 20.672 66.264 21.992 68.112 22.904L69.048 21.296C67.104 20.36 63.456 19.16 60.816 18.464L59.928 19.904ZM78.072 14.216H89.952V18.08H78.072V14.216ZM76.32 12.608V19.688H91.8V12.608H76.32ZM73.656 8.24V9.92H94.416V8.24H73.656ZM83.016 5.84V13.328H84.84V5.84H83.016ZM85.584 18.704V25.16C85.584 27.128 86.184 27.704 88.44 27.704C88.896 27.704 91.752 27.704 92.232 27.704C94.272 27.704 94.8 26.792 95.016 23.168C94.512 23.048 93.72 22.76 93.312 22.424C93.216 25.52 93.072 25.976 92.088 25.976C91.44 25.976 89.112 25.976 88.608 25.976C87.6 25.976 87.408 25.856 87.408 25.136V18.704H85.584ZM80.112 19.328C79.68 22.928 78.528 25.208 73.032 26.336C73.416 26.72 73.92 27.488 74.088 27.968C80.088 26.528 81.528 23.72 82.032 19.328H80.112Z" fill="#333333"/>
<path opacity="0.6" d="M37.774 46.05C37.774 45.03 37.978 44.142 38.386 43.386C38.794 42.618 39.358 42.024 40.078 41.604C40.81 41.184 41.644 40.974 42.58 40.974C43.792 40.974 44.788 41.268 45.568 41.856C46.36 42.444 46.882 43.26 47.134 44.304H45.37C45.202 43.704 44.872 43.23 44.38 42.882C43.9 42.534 43.3 42.36 42.58 42.36C41.644 42.36 40.888 42.684 40.312 43.332C39.736 43.968 39.448 44.874 39.448 46.05C39.448 47.238 39.736 48.156 40.312 48.804C40.888 49.452 41.644 49.776 42.58 49.776C43.3 49.776 43.9 49.608 44.38 49.272C44.86 48.936 45.19 48.456 45.37 47.832H47.134C46.87 48.84 46.342 49.65 45.55 50.262C44.758 50.862 43.768 51.162 42.58 51.162C41.644 51.162 40.81 50.952 40.078 50.532C39.358 50.112 38.794 49.518 38.386 48.75C37.978 47.982 37.774 47.082 37.774 46.05ZM58.0676 41.136V51H56.4296V49.542C56.1176 50.046 55.6796 50.442 55.1156 50.73C54.5636 51.006 53.9516 51.144 53.2796 51.144C52.5116 51.144 51.8216 50.988 51.2096 50.676C50.5976 50.352 50.1116 49.872 49.7516 49.236C49.4036 48.6 49.2296 47.826 49.2296 46.914V41.136H50.8496V46.698C50.8496 47.67 51.0956 48.42 51.5876 48.948C52.0796 49.464 52.7516 49.722 53.6036 49.722C54.4796 49.722 55.1696 49.452 55.6736 48.912C56.1776 48.372 56.4296 47.586 56.4296 46.554V41.136H58.0676ZM62.4713 42.954C62.7953 42.39 63.2753 41.922 63.9113 41.55C64.5593 41.166 65.3093 40.974 66.1613 40.974C67.0373 40.974 67.8293 41.184 68.5373 41.604C69.2573 42.024 69.8213 42.618 70.2293 43.386C70.6373 44.142 70.8413 45.024 70.8413 46.032C70.8413 47.028 70.6373 47.916 70.2293 48.696C69.8213 49.476 69.2573 50.082 68.5373 50.514C67.8293 50.946 67.0373 51.162 66.1613 51.162C65.3213 51.162 64.5773 50.976 63.9293 50.604C63.2933 50.22 62.8073 49.746 62.4713 49.182V55.68H60.8333V41.136H62.4713V42.954ZM69.1673 46.032C69.1673 45.288 69.0173 44.64 68.7173 44.088C68.4173 43.536 68.0093 43.116 67.4933 42.828C66.9893 42.54 66.4313 42.396 65.8193 42.396C65.2193 42.396 64.6613 42.546 64.1453 42.846C63.6413 43.134 63.2333 43.56 62.9213 44.124C62.6213 44.676 62.4713 45.318 62.4713 46.05C62.4713 46.794 62.6213 47.448 62.9213 48.012C63.2333 48.564 63.6413 48.99 64.1453 49.29C64.6613 49.578 65.2193 49.722 65.8193 49.722C66.4313 49.722 66.9893 49.578 67.4933 49.29C68.0093 48.99 68.4173 48.564 68.7173 48.012C69.0173 47.448 69.1673 46.788 69.1673 46.032ZM77.1842 46.05C77.1842 45.03 77.3882 44.142 77.7962 43.386C78.2042 42.618 78.7682 42.024 79.4882 41.604C80.2202 41.184 81.0542 40.974 81.9902 40.974C83.2022 40.974 84.1982 41.268 84.9782 41.856C85.7702 42.444 86.2922 43.26 86.5442 44.304H84.7802C84.6122 43.704 84.2822 43.23 83.7902 42.882C83.3102 42.534 82.7102 42.36 81.9902 42.36C81.0542 42.36 80.2982 42.684 79.7222 43.332C79.1462 43.968 78.8582 44.874 78.8582 46.05C78.8582 47.238 79.1462 48.156 79.7222 48.804C80.2982 49.452 81.0542 49.776 81.9902 49.776C82.7102 49.776 83.3102 49.608 83.7902 49.272C84.2702 48.936 84.6002 48.456 84.7802 47.832H86.5442C86.2802 48.84 85.7522 49.65 84.9602 50.262C84.1682 50.862 83.1782 51.162 81.9902 51.162C81.0542 51.162 80.2202 50.952 79.4882 50.532C78.7682 50.112 78.2042 49.518 77.7962 48.75C77.3882 47.982 77.1842 47.082 77.1842 46.05ZM88.1178 46.032C88.1178 45.024 88.3218 44.142 88.7298 43.386C89.1378 42.618 89.6958 42.024 90.4038 41.604C91.1238 41.184 91.9218 40.974 92.7978 40.974C93.6618 40.974 94.4118 41.16 95.0478 41.532C95.6838 41.904 96.1578 42.372 96.4698 42.936V41.136H98.1258V51H96.4698V49.164C96.1458 49.74 95.6598 50.22 95.0118 50.604C94.3758 50.976 93.6318 51.162 92.7798 51.162C91.9038 51.162 91.1118 50.946 90.4038 50.514C89.6958 50.082 89.1378 49.476 88.7298 48.696C88.3218 47.916 88.1178 47.028 88.1178 46.032ZM96.4698 46.05C96.4698 45.306 96.3198 44.658 96.0198 44.106C95.7198 43.554 95.3118 43.134 94.7958 42.846C94.2918 42.546 93.7338 42.396 93.1218 42.396C92.5098 42.396 91.9518 42.54 91.4478 42.828C90.9438 43.116 90.5418 43.536 90.2418 44.088C89.9418 44.64 89.7918 45.288 89.7918 46.032C89.7918 46.788 89.9418 47.448 90.2418 48.012C90.5418 48.564 90.9438 48.99 91.4478 49.29C91.9518 49.578 92.5098 49.722 93.1218 49.722C93.7338 49.722 94.2918 49.578 94.7958 49.29C95.3118 48.99 95.7198 48.564 96.0198 48.012C96.3198 47.448 96.4698 46.794 96.4698 46.05ZM106.402 51L102.532 46.644V51H100.894V37.68H102.532V45.51L106.33 41.136H108.616L103.972 46.05L108.634 51H106.402ZM119.157 45.69C119.157 46.002 119.139 46.332 119.103 46.68H111.219C111.279 47.652 111.609 48.414 112.209 48.966C112.821 49.506 113.559 49.776 114.423 49.776C115.131 49.776 115.719 49.614 116.187 49.29C116.667 48.954 117.003 48.51 117.195 47.958H118.959C118.695 48.906 118.167 49.68 117.375 50.28C116.583 50.868 115.599 51.162 114.423 51.162C113.487 51.162 112.647 50.952 111.903 50.532C111.171 50.112 110.595 49.518 110.175 48.75C109.755 47.97 109.545 47.07 109.545 46.05C109.545 45.03 109.749 44.136 110.157 43.368C110.565 42.6 111.135 42.012 111.867 41.604C112.611 41.184 113.463 40.974 114.423 40.974C115.359 40.974 116.187 41.178 116.907 41.586C117.627 41.994 118.179 42.558 118.563 43.278C118.959 43.986 119.157 44.79 119.157 45.69ZM117.465 45.348C117.465 44.724 117.327 44.19 117.051 43.746C116.775 43.29 116.397 42.948 115.917 42.72C115.449 42.48 114.927 42.36 114.351 42.36C113.523 42.36 112.815 42.624 112.227 43.152C111.651 43.68 111.321 44.412 111.237 45.348H117.465Z" fill="black"/>
<line x1="37" y1="35" x2="110" y2="35" stroke="#333333" stroke-width="2"/>
</svg>
