<svg width="19" height="17" viewBox="0 0 19 17" fill="none" xmlns="http://www.w3.org/2000/svg">
<path d="M12.25 4.33331H6.41667C3.42512 4.33331 1 6.75844 1 9.74998C1 12.7415 3.42512 15.1666 6.41667 15.1666H12.25C15.2415 15.1666 17.6667 12.7415 17.6667 9.74998C17.6667 6.75844 15.2415 4.33331 12.25 4.33331Z" stroke="#333333" stroke-width="2"/>
<path d="M9.33333 15.1666C11.1743 15.1666 12.6667 12.7415 12.6667 9.74998C12.6667 6.75844 11.1743 4.33331 9.33333 4.33331C7.49238 4.33331 6 6.75844 6 9.74998C6 12.7415 7.49238 15.1666 9.33333 15.1666Z" stroke="#333333" stroke-width="2"/>
<path d="M11.8333 1H10.5833C10.2517 1 9.93379 1.1317 9.69937 1.36612C9.46495 1.60054 9.33325 1.91848 9.33325 2.25V4.33333" stroke="#333333" stroke-width="2" stroke-linecap="round" stroke-linejoin="round"/>
</svg>
