<svg width="22" height="20" viewBox="0 0 22 20" fill="none" xmlns="http://www.w3.org/2000/svg">
<path d="M20.4895 8.82991L18.7028 9.97052L21.308 10.1819C21.5221 10.1977 21.6906 10.2829 21.8134 10.4373C21.9362 10.5918 21.9803 10.7688 21.9459 10.9684C21.9038 11.1712 21.7958 11.3349 21.6219 11.4594C21.448 11.584 21.2541 11.6383 21.04 11.6225L18.439 11.4214L19.7587 12.807C19.9672 13.0266 20.0116 13.2639 19.892 13.5191C19.7723 13.7742 19.5687 13.9413 19.2812 14.0204C18.9938 14.0994 18.7472 14.0326 18.5416 13.8199L16.0802 11.2165L12.284 10.9075L13.6235 14.1338L17.0433 15.59C17.2178 15.6626 17.3389 15.7694 17.4065 15.9105C17.4741 16.0516 17.4838 16.1946 17.4357 16.3395C17.3876 16.4843 17.3136 16.6158 17.2137 16.7338C17.1138 16.8518 16.9793 16.9298 16.8101 16.9678C16.6409 17.0058 16.469 16.9886 16.2945 16.916L14.4538 16.1335L15.3696 18.3393C15.4438 18.518 15.4349 18.7029 15.3429 18.8942C15.2508 19.0855 15.1048 19.2227 14.9047 19.3057C14.7046 19.3888 14.5043 19.3954 14.3039 19.3256C14.1034 19.2557 13.9661 19.1315 13.8919 18.9528L12.9761 16.747L12.2309 18.6032C12.1591 18.778 12.05 18.9119 11.9037 19.0049C11.7573 19.0979 11.6071 19.1381 11.453 19.1256C11.2989 19.113 11.1536 19.0727 11.017 19.0045C10.8804 18.9363 10.786 18.8285 10.7338 18.681C10.6816 18.5335 10.6913 18.3723 10.7631 18.1975L12.1458 14.7473L10.8063 11.5211L8.34537 14.428L8.45173 18.0092C8.45724 18.305 8.33052 18.5268 8.07156 18.6746C7.81261 18.8224 7.55055 18.8486 7.28539 18.7532C7.02023 18.6579 6.88346 18.4589 6.8751 18.1562L6.8253 16.2434L5.13167 18.2275C4.99175 18.3904 4.81631 18.4894 4.60535 18.5246C4.3944 18.5598 4.20224 18.5208 4.02887 18.4075C3.8632 18.291 3.769 18.1347 3.74627 17.9387C3.72354 17.7427 3.78214 17.5633 3.92206 17.4005L5.61141 15.406L3.54226 15.8663C3.30194 15.9178 3.09895 15.8852 2.93328 15.7687C2.7676 15.6522 2.66856 15.506 2.63615 15.3302C2.60373 15.1543 2.6448 14.9761 2.75934 14.7956C2.87389 14.6152 3.05132 14.4992 3.29163 14.4478L7.13576 13.6009L9.5924 10.6837L5.79195 10.3643L2.4785 12.4893C2.45057 12.509 2.40197 12.5332 2.3327 12.5619C2.1249 12.6482 1.9299 12.6567 1.74771 12.5873C1.56551 12.5179 1.43534 12.4109 1.35718 12.2661C1.27902 12.1213 1.26 11.956 1.30014 11.7701C1.34028 11.5843 1.45711 11.431 1.65065 11.3104L3.43735 10.1698L0.832152 9.9584C0.618046 9.94256 0.449604 9.85742 0.326823 9.70296C0.204043 9.5485 0.159868 9.37148 0.194299 9.17188C0.22873 8.97229 0.336012 8.80691 0.516144 8.67572C0.696277 8.54454 0.890974 8.4919 1.10024 8.5178L3.70115 8.71887L2.38146 7.33328C2.17299 7.1137 2.12858 6.87635 2.24824 6.62123C2.36789 6.36612 2.57146 6.19902 2.85894 6.11994C3.14643 6.04086 3.39298 6.10767 3.5986 6.32039L6.06003 8.92375L9.85621 9.23277L8.51668 6.0065L5.09687 4.55029C4.92237 4.47772 4.80132 4.37089 4.73371 4.22978C4.66609 4.08866 4.65636 3.94568 4.70449 3.80082C4.75262 3.65597 4.82663 3.52453 4.92651 3.40653C5.0264 3.28852 5.16094 3.21051 5.33012 3.17249C5.49931 3.13447 5.67115 3.15174 5.84565 3.2243L7.68642 4.00683L6.77058 1.80101C6.6964 1.62235 6.70532 1.43738 6.79734 1.2461C6.88936 1.05482 7.03542 0.917643 7.23553 0.834561C7.43563 0.751478 7.6359 0.744862 7.83634 0.81471C8.03678 0.884559 8.17409 1.00882 8.24827 1.18748L9.16412 3.3933L9.9093 1.53709C9.98109 1.36227 10.0902 1.22837 10.2365 1.13537C10.3829 1.04238 10.5331 1.00216 10.6872 1.01472C10.8413 1.02727 10.9866 1.06763 11.1232 1.1358C11.2598 1.20397 11.3542 1.3118 11.4064 1.4593C11.4586 1.6068 11.4488 1.76796 11.3771 1.94278L9.99437 5.39297L11.3339 8.61924L13.7948 5.7123L13.6885 2.13112C13.683 1.83533 13.8097 1.61353 14.0686 1.46573C14.3276 1.31793 14.5896 1.29171 14.8548 1.38705C15.12 1.48239 15.2567 1.68139 15.2651 1.98406L15.3149 3.8969L17.0085 1.91276C17.1484 1.74993 17.3239 1.65091 17.5348 1.61569C17.7458 1.58046 17.938 1.61951 18.1113 1.73282C18.277 1.84933 18.3712 2.00559 18.3939 2.20159C18.4167 2.39759 18.3581 2.577 18.2181 2.73983L16.5288 4.73427L18.5979 4.27396C18.82 4.22204 19.011 4.24746 19.171 4.35023C19.331 4.45299 19.4346 4.58316 19.482 4.74073C19.5294 4.8983 19.5133 5.06609 19.4338 5.2441C19.3544 5.42212 19.2107 5.55426 19.0029 5.64054C18.9337 5.6693 18.8822 5.68663 18.8486 5.69254L15.0044 6.53937L12.5478 9.45662L16.3482 9.77595L19.6617 7.65098C19.8678 7.51708 20.0752 7.47327 20.2839 7.51955C20.4926 7.56583 20.6477 7.66252 20.7494 7.80963C20.8511 7.95673 20.8847 8.13008 20.8503 8.32967C20.8159 8.52926 20.6956 8.69601 20.4895 8.82991Z" fill="white"/>
</svg>
